<svg class="icon" viewBox="0 0 1024 1024" xmlns="http://www.w3.org/2000/svg" width="200" height="200"><path d="M428 768c-99.2 0-192.7-27.9-263.1-78.6-34.5-24.9-61.7-53.9-80.7-86.3-19.9-33.8-30-69.8-30-107s10.1-73.1 30-107c19-32.4 46.2-61.4 80.7-86.3 70.4-50.7 163.8-78.6 263.1-78.6s192.7 27.9 263.1 78.6c34.5 24.9 61.7 53.9 80.7 86.3 19.9 33.8 30 69.8 30 107 0 99.7-74.7 191.2-194.9 238.8-5.1 2-10.9-.5-13-5.6-2-5.1.5-10.9 5.6-13 112.4-44.6 182.2-128.9 182.2-220.2 0-138.9-158.7-251.8-353.8-251.8-195.1 0-353.8 113-353.8 251.8C74.3 635.1 232.9 748 428 748c20.2 0 40.4-1.2 60.2-3.6 5.5-.7 10.5 3.2 11.1 8.7.7 5.5-3.2 10.5-8.7 11.1-20.5 2.6-41.6 3.8-62.6 3.8z" fill="#153BDF"/><path d="M250.1 734.6c-1.3 0-2.5-.2-3.7-.7-56.9-23-104.8-56.6-138.5-97.1-35.1-42.2-53.7-90.8-53.7-140.5s18.6-98.3 53.7-140.5c33.7-40.5 81.6-74.1 138.5-97.1 3.3-1.3 7.1-.8 9.9 1.4 30 23.4 55.1 57.4 72.6 98.1 17.9 41.6 27.4 89.4 27.4 138.1 0 48.7-9.5 96.4-27.4 138.1-17.5 40.8-42.6 74.7-72.6 98.1-1.8 1.4-4 2.1-6.2 2.1zm-1.6-455.2c-107.6 45.3-174.2 128-174.2 216.9 0 88.8 66.6 171.5 174.2 216.9 54.3-45.4 87.8-127.8 87.8-216.9 0-89.1-33.5-171.6-87.8-216.9zM459 641.8c-3 0-5.9-1.3-7.9-3.8-3.4-4.4-2.6-10.6 1.7-14 32.8-25.7 53.2-74.6 53.2-127.7 0-53.1-20.4-102-53.2-127.7-4.4-3.4-5.1-9.7-1.7-14 3.4-4.4 9.7-5.1 14-1.7 37.6 29.4 60.9 84.4 60.9 143.5s-23.3 114.1-60.9 143.5c-1.8 1.2-4 1.9-6.1 1.9zm97.6-48.8c-3 0-5.9-1.3-7.9-3.8-3.4-4.4-2.6-10.6 1.7-14 20.2-15.8 32.7-46 32.7-78.9 0-32.9-12.5-63.1-32.7-78.9-4.4-3.4-5.1-9.7-1.7-14 3.4-4.4 9.7-5.1 14-1.7 24.9 19.5 40.4 55.8 40.4 94.7s-15.5 75.2-40.4 94.7c-1.8 1.2-3.9 1.9-6.1 1.9zm377.9 54.6c-3.4 0-6.8-.9-9.8-2.8l-145.6-87c-4.7-2.8-6.3-9-3.5-13.7 2.8-4.7 9-6.3 13.7-3.5L932 625.8l-39-131.1c-3-10.1-3.4-20.8-1.1-31.1l25.9-115-127.1 107.1c-4.2 3.6-10.5 3-14.1-1.2-3.6-4.2-3-10.5 1.2-14.1l130.3-109.8c6.2-5.2 14.7-5.9 21.6-1.7 6.9 4.2 10.3 12 8.5 19.9L911.4 468c-1.6 6.9-1.3 14.2.7 21l40.1 134.7c2.2 7.5-.3 15.4-6.6 20.1-3.2 2.5-7.1 3.8-11.1 3.8z" fill="#153BDF"/><path d="M163 494.5a34.1 34.1 0 1 0 68.2 0 34.1 34.1 0 1 0-68.2 0ZM549.7 810.7c-4.2 0-8.4-.3-12.4-1h-.2c-18.5-3.4-44.7-24-58.6-61-4.6-12.3-1.7-26.3 7.5-35.8 15.7-16.1 41.9-22.9 78-20.1 8.7.7 17 4.4 23.4 10.4l72.7 68-11.5 6.8c-2.4 1.5-55.8 32.7-98.9 32.7zm-9-20.7c25.5 4.2 63.8-11.6 85.9-22.8l-52.9-49.4c-3.1-2.9-7.2-4.7-11.3-5.1-37.2-2.9-54.3 6.1-62.1 14.1-3.8 3.9-5 9.7-3.1 14.8 11.3 29.9 32.2 46.3 43.5 48.4zm58.4-514.9c-3.5 0-7-1.9-8.8-5.2-1.7-3-3.2-6.1-4.8-9-14.9-28.5-26.7-51-86.5-59.4-42.6-2-72.9 27.3-82.8 36.9-4 3.9-7.2 7-12.8 5.8-5.4-1.2-8.8-6.5-7.7-11.9.6-2.8 2.3-5.1 4.6-6.5.5-.5 1.3-1.2 1.9-1.8 11.5-11.2 46.7-45.2 98.2-42.5.3 0 .6 0 .9.1 70.3 9.8 86.4 40.4 101.9 70 1.5 2.9 3 5.8 4.6 8.7 2.6 4.8.9 10.9-4 13.6-1.5.8-3.1 1.2-4.7 1.2z" fill="#153BDF"/></svg>